<svg xmlns="http://www.w3.org/2000/svg" width="1608" height="568" viewBox="0 0 1608 568"><rect width="100%" height="100%" fill="#ffffff"/><style>text{font-family:-apple-system,BlinkMacSystemFont,'Segoe UI',sans-serif}.word{font-size:25px;font-weight:700;fill:#18212f}.masked{font-size:16px;fill:#697386}.icon{font-family:'Apple Color Emoji','Segoe UI Emoji','Noto Color Emoji',sans-serif;font-size:112px}</style><g transform="translate(24,24)"><rect x="10" y="10" width="236" height="236" rx="34" fill="#eafafa" stroke="#42a5a5" stroke-opacity=".28" stroke-width="2"/><circle cx="128" cy="116" r="82" fill="#fff" fill-opacity=".62"/><text class="icon" x="128" y="155" text-anchor="middle">🕳️</text><text class="word" x="128" y="210" text-anchor="middle">dziura</text><text class="masked" x="128" y="234" text-anchor="middle">_ura · dź/dzi · podstawowe</text></g><g transform="translate(284,24)"><rect x="10" y="10" width="236" height="236" rx="34" fill="#eafafa" stroke="#42a5a5" stroke-opacity=".28" stroke-width="2"/><circle cx="128" cy="116" r="82" fill="#fff" fill-opacity=".62"/><text class="icon" x="128" y="155" text-anchor="middle">🐗</text><text class="word" x="128" y="210" text-anchor="middle">dzik</text><text class="masked" x="128" y="234" text-anchor="middle">_k · dź/dzi · podstawowe</text></g><g transform="translate(544,24)"><rect x="10" y="10" width="236" height="236" rx="34" fill="#eafafa" stroke="#42a5a5" stroke-opacity=".28" stroke-width="2"/><circle cx="128" cy="116" r="82" fill="#fff" fill-opacity=".62"/><text class="icon" x="128" y="155" text-anchor="middle">👴</text><text class="word" x="128" y="210" text-anchor="middle">dziadek</text><text class="masked" x="128" y="234" text-anchor="middle">_adek · dź/dzi · podstawowe</text></g><g transform="translate(804,24)"><rect x="10" y="10" width="236" height="236" rx="34" fill="#eafafa" stroke="#42a5a5" stroke-opacity=".28" stroke-width="2"/><circle cx="128" cy="116" r="82" fill="#fff" fill-opacity=".62"/><text class="icon" x="128" y="155" text-anchor="middle">👧</text><text class="word" x="128" y="210" text-anchor="middle">dziewczyna</text><text class="masked" x="128" y="234" text-anchor="middle">_ewczyna · dź/dzi · trudne</text></g><g transform="translate(1064,24)"><rect x="10" y="10" width="236" height="236" rx="34" fill="#eafafa" stroke="#42a5a5" stroke-opacity=".28" stroke-width="2"/><circle cx="128" cy="116" r="82" fill="#fff" fill-opacity=".62"/><text class="icon" x="128" y="155" text-anchor="middle">🏗️</text><text class="word" x="128" y="210" text-anchor="middle">dźwig</text><text class="masked" x="128" y="234" text-anchor="middle">_wig · dź/dzi · trudne</text></g><g transform="translate(1324,24)"><rect x="10" y="10" width="236" height="236" rx="34" fill="#eafafa" stroke="#42a5a5" stroke-opacity=".28" stroke-width="2"/><circle cx="128" cy="116" r="82" fill="#fff" fill-opacity=".62"/><text class="icon" x="128" y="155" text-anchor="middle">🔊</text><text class="word" x="128" y="210" text-anchor="middle">dźwięk</text><text class="masked" x="128" y="234" text-anchor="middle">_więk · dź/dzi · trudne</text></g><g transform="translate(24,284)"><rect x="10" y="10" width="236" height="236" rx="34" fill="#eafafa" stroke="#42a5a5" stroke-opacity=".28" stroke-width="2"/><circle cx="128" cy="116" r="82" fill="#fff" fill-opacity=".62"/><text class="icon" x="128" y="155" text-anchor="middle">🎶</text><text class="word" x="128" y="210" text-anchor="middle">dźwięczny</text><text class="masked" x="128" y="234" text-anchor="middle">_więczny · dź/dzi · trudne</text></g><g transform="translate(284,284)"><rect x="10" y="10" width="236" height="236" rx="34" fill="#eafafa" stroke="#42a5a5" stroke-opacity=".28" stroke-width="2"/><circle cx="128" cy="116" r="82" fill="#fff" fill-opacity=".62"/><text class="icon" x="128" y="155" text-anchor="middle">⚙️</text><text class="word" x="128" y="210" text-anchor="middle">dźwignia</text><text class="masked" x="128" y="234" text-anchor="middle">_wignia · dź/dzi · trudne</text></g><g transform="translate(544,284)"><rect x="10" y="10" width="236" height="236" rx="34" fill="#eafafa" stroke="#42a5a5" stroke-opacity=".28" stroke-width="2"/><circle cx="128" cy="116" r="82" fill="#fff" fill-opacity=".62"/><text class="icon" x="128" y="155" text-anchor="middle">🐻</text><text class="word" x="128" y="210" text-anchor="middle">niedźwiedź</text><text class="masked" x="128" y="234" text-anchor="middle">nie_wiedź · dź/dzi · trudne</text></g></svg>